<svg version="1.2" baseProfile="tiny" xmlns="http://www.w3.org/2000/svg" viewBox="0 0 48 48" overflow="scroll"><path fill="#EAEAEA" d="M45 42H3a3 3 0 0 1-3-3V9a3 3 0 0 1 3-3h42a3 3 0 0 1 3 3v30a3 3 0 0 1-3 3z"/><path fill="#D54C3F" d="M6 42H3a3 3 0 0 1-3-3V9a3 3 0 1 1 6 0v33z"/><path fill="#B63524" d="M42 42h3a3 3 0 0 0 3-3V9a3 3 0 1 0-6 0v33z"/><path fill="#DE5145" d="M46.718 11.46a3 3 0 1 0-3.436-4.92l-19.28 14.037-.002.001-.002-.001L4.718 6.54a3 3 0 0 0-3.436 4.92l-.08-.059L24 28m22.799-16.599L24 28"/><path fill="#EFEFEF" d="M45 6c-.639 0-1.232.2-1.718.54l-19.28 14.037-.002.001-.002-.001L4.718 6.54A2.988 2.988 0 0 0 3 6h42z"/><path fill="#C64132" d="M6.001 16.188L.945 11.18l-.002.004c.106.1.219.192.339.276l-.08-.059 4.8 3.495-.001 1.328"/><path fill="#E3E3E3" d="M20.668 30.591L6 42l.001-25.937 14.664 14.524"/><linearGradient id="a" gradientUnits="userSpaceOnUse" x1="6" y1="22.744" x2="24" y2="22.744"><stop offset="0" stop-color="#c8c8c8"/><stop offset="1" stop-color="#cdcdcd"/></linearGradient><path fill="url(#a)" d="M20.668 30.591L24 28 6.001 14.896v1.167l14.664 14.524z"/><linearGradient id="b" gradientUnits="userSpaceOnUse" x1="20.665" y1="28.447" x2="42" y2="28.447"><stop offset="0" stop-color="#d9d9d9"/><stop offset="1" stop-color="#e2e2e2"/></linearGradient><path fill="url(#b)" d="M32.061 42H42V14.895L24 28l-3.335 2.587z"/></svg>